HIERARCHY
ROOT Hips
{
	OFFSET 0.000000 100.481300 0.000000
	CHANNELS 6 Xposition Yposition Zposition Xrotation Yrotation Zrotation
	JOINT Spine
	{
		OFFSET -0.279200 12.230698 -2.892100
		CHANNELS 3 Xrotation Yrotation Zrotation
		JOINT Spine1
		{
			OFFSET -0.325700 14.269203 -3.374200
			CHANNELS 3 Xrotation Yrotation Zrotation
			JOINT Spine2
			{
				OFFSET -0.372300 16.307602 -0.352600
				CHANNELS 3 Xrotation Yrotation Zrotation
				JOINT Neck
				{
					OFFSET -0.418800 17.814194 8.416900
					CHANNELS 3 Xrotation Yrotation Zrotation
					JOINT Head
					{
						OFFSET 0.000000 7.031097 3.806800
						CHANNELS 3 Xrotation Yrotation Zrotation
						JOINT HeadTop_End
						{
							OFFSET 0.000000 24.646606 12.978600
							CHANNELS 3 Xrotation Yrotation Zrotation
							End Site
							{
								OFFSET 0.000000 27.854965 0.000000
							}
						}
					}
				}
				JOINT LeftShoulder
				{
					OFFSET 16.952999 14.495407 -7.737500
					CHANNELS 3 Xrotation Yrotation Zrotation
					JOINT LeftArm
					{
						OFFSET 9.308998 -2.777710 0.208600
						CHANNELS 3 Xrotation Yrotation Zrotation
						JOINT LeftForeArm
						{
							OFFSET 29.972298 0.000000 0.000000
							CHANNELS 3 Xrotation Yrotation Zrotation
							JOINT LeftHand
							{
								OFFSET 26.026505 0.000000 0.000000
								CHANNELS 3 Xrotation Yrotation Zrotation
								JOINT LeftHandThumb1
								{
									OFFSET 12.240501 -7.147949 9.207150
									CHANNELS 3 Xrotation Yrotation Zrotation
									JOINT LeftHandThumb2
									{
										OFFSET 4.138618 -2.389435 2.389433
										CHANNELS 3 Xrotation Yrotation Zrotation
										JOINT LeftHandThumb3
										{
											OFFSET 2.726913 -1.574387 1.574386
											CHANNELS 3 Xrotation Yrotation Zrotation
											JOINT LeftHandThumb4
											{
												OFFSET 3.941010 -2.275345 2.275342
												CHANNELS 3 Xrotation Yrotation Zrotation
												End Site
												{
													OFFSET -0.005798 5.087799 0.009903
												}
											}
										}
									}
								}
								JOINT LeftHandIndex1
								{
									OFFSET 24.424698 -1.985611 5.953459
									CHANNELS 3 Xrotation Yrotation Zrotation
									JOINT LeftHandIndex2
									{
										OFFSET 6.426697 0.000000 0.000000
										CHANNELS 3 Xrotation Yrotation Zrotation
										JOINT LeftHandIndex3
										{
											OFFSET 5.337898 0.000000 0.000000
											CHANNELS 3 Xrotation Yrotation Zrotation
											JOINT LeftHandIndex4
											{
												OFFSET 4.409401 0.000000 0.000000
												CHANNELS 3 Xrotation Yrotation Zrotation
												End Site
												{
													OFFSET 0.000000 4.409363 0.014373
												}
											}
										}
									}
								}
								JOINT LeftHandMiddle1
								{
									OFFSET 23.810104 0.000000 0.000000
									CHANNELS 3 Xrotation Yrotation Zrotation
									JOINT LeftHandMiddle2
									{
										OFFSET 7.176498 0.000000 0.000000
										CHANNELS 3 Xrotation Yrotation Zrotation
										JOINT LeftHandMiddle3
										{
											OFFSET 6.774902 0.000000 0.000000
											CHANNELS 3 Xrotation Yrotation Zrotation
											JOINT LeftHandMiddle4
											{
												OFFSET 5.403328 0.000000 0.000000
												CHANNELS 3 Xrotation Yrotation Zrotation
												End Site
												{
													OFFSET -0.027702 5.403244 0.017414
												}
											}
										}
									}
								}
								JOINT LeftHandRing1
								{
									OFFSET 22.908401 -0.839279 -6.020567
									CHANNELS 3 Xrotation Yrotation Zrotation
									JOINT LeftHandRing2
									{
										OFFSET 6.337502 0.000000 0.000000
										CHANNELS 3 Xrotation Yrotation Zrotation
										JOINT LeftHandRing3
										{
											OFFSET 5.779297 0.000000 0.000000
											CHANNELS 3 Xrotation Yrotation Zrotation
											JOINT LeftHandRing4
											{
												OFFSET 4.965698 0.000000 0.000000
												CHANNELS 3 Xrotation Yrotation Zrotation
												End Site
												{
													OFFSET 0.000000 4.965668 0.016186
												}
											}
										}
									}
								}
								JOINT LeftHandPinky1
								{
									OFFSET 20.037003 -1.530319 -10.950146
									CHANNELS 3 Xrotation Yrotation Zrotation
									JOINT LeftHandPinky2
									{
										OFFSET 5.254700 0.000000 0.000000
										CHANNELS 3 Xrotation Yrotation Zrotation
										JOINT LeftHandPinky3
										{
											OFFSET 4.810204 0.000000 0.000000
											CHANNELS 3 Xrotation Yrotation Zrotation
											JOINT LeftHandPinky4
											{
												OFFSET 3.647202 0.000000 0.000000
												CHANNELS 3 Xrotation Yrotation Zrotation
												End Site
												{
													OFFSET 0.000000 3.647186 0.011889
												}
											}
										}
									}
								}
							}
						}
					}
				}
				JOINT RightShoulder
				{
					OFFSET -15.141001 14.495407 -7.737500
					CHANNELS 3 Xrotation Yrotation Zrotation
					JOINT RightArm
					{
						OFFSET -9.308998 -2.777710 0.208500
						CHANNELS 3 Xrotation Yrotation Zrotation
						JOINT RightForeArm
						{
							OFFSET -29.972300 0.000000 0.000000
							CHANNELS 3 Xrotation Yrotation Zrotation
							JOINT RightHand
							{
								OFFSET -26.026505 0.000000 0.000000
								CHANNELS 3 Xrotation Yrotation Zrotation
								JOINT RightHandThumb1
								{
									OFFSET -12.240601 -7.148026 9.207092
									CHANNELS 3 Xrotation Yrotation Zrotation
									JOINT RightHandThumb2
									{
										OFFSET -4.138618 -2.389435 2.389433
										CHANNELS 3 Xrotation Yrotation Zrotation
										JOINT RightHandThumb3
										{
											OFFSET -2.726974 -1.574417 1.574421
											CHANNELS 3 Xrotation Yrotation Zrotation
											JOINT RightHandThumb4
											{
												OFFSET -3.941010 -2.275345 2.275343
												CHANNELS 3 Xrotation Yrotation Zrotation
												End Site
												{
													OFFSET 0.005814 5.087799 0.009927
												}
											}
										}
									}
								}
								JOINT RightHandIndex1
								{
									OFFSET -24.424698 -1.985657 5.953444
									CHANNELS 3 Xrotation Yrotation Zrotation
									JOINT RightHandIndex2
									{
										OFFSET -6.426697 0.000000 0.000000
										CHANNELS 3 Xrotation Yrotation Zrotation
										JOINT RightHandIndex3
										{
											OFFSET -5.337898 0.000000 0.000000
											CHANNELS 3 Xrotation Yrotation Zrotation
											JOINT RightHandIndex4
											{
												OFFSET -4.409401 0.000000 0.000000
												CHANNELS 3 Xrotation Yrotation Zrotation
												End Site
												{
													OFFSET 0.000000 4.409363 0.014408
												}
											}
										}
									}
								}
								JOINT RightHandMiddle1
								{
									OFFSET -23.810097 0.000000 0.000000
									CHANNELS 3 Xrotation Yrotation Zrotation
									JOINT RightHandMiddle2
									{
										OFFSET -7.176498 0.000000 0.000000
										CHANNELS 3 Xrotation Yrotation Zrotation
										JOINT RightHandMiddle3
										{
											OFFSET -6.774902 0.000000 0.000000
											CHANNELS 3 Xrotation Yrotation Zrotation
											JOINT RightHandMiddle4
											{
												OFFSET -5.403328 0.000000 0.000000
												CHANNELS 3 Xrotation Yrotation Zrotation
												End Site
												{
													OFFSET 0.027702 5.403244 0.017457
												}
											}
										}
									}
								}
								JOINT RightHandRing1
								{
									OFFSET -22.908302 -0.839325 -6.020576
									CHANNELS 3 Xrotation Yrotation Zrotation
									JOINT RightHandRing2
									{
										OFFSET -6.337502 0.000000 0.000000
										CHANNELS 3 Xrotation Yrotation Zrotation
										JOINT RightHandRing3
										{
											OFFSET -5.779297 0.000000 0.000000
											CHANNELS 3 Xrotation Yrotation Zrotation
											JOINT RightHandRing4
											{
												OFFSET -4.965698 0.000000 0.000000
												CHANNELS 3 Xrotation Yrotation Zrotation
												End Site
												{
													OFFSET 0.000000 4.965668 0.016226
												}
											}
										}
									}
								}
								JOINT RightHandPinky1
								{
									OFFSET -20.037003 -1.530334 -10.950259
									CHANNELS 3 Xrotation Yrotation Zrotation
									JOINT RightHandPinky2
									{
										OFFSET -5.254700 0.000000 0.000000
										CHANNELS 3 Xrotation Yrotation Zrotation
										JOINT RightHandPinky3
										{
											OFFSET -4.810204 0.000000 0.000000
											CHANNELS 3 Xrotation Yrotation Zrotation
											JOINT RightHandPinky4
											{
												OFFSET -3.647202 0.000000 0.000000
												CHANNELS 3 Xrotation Yrotation Zrotation
												End Site
												{
													OFFSET 0.000000 3.647186 0.011917
												}
											}
										}
									}
								}
							}
						}
					}
				}
			}
		}
	}
	JOINT LeftUpLeg
	{
		OFFSET 15.427100 -6.655098 0.678600
		CHANNELS 3 Xrotation Yrotation Zrotation
		JOINT LeftLeg
		{
			OFFSET 4.081073 -39.591068 13.024000
			CHANNELS 3 Xrotation Yrotation Zrotation
			JOINT LeftFoot
			{
				OFFSET -4.081074 -37.707932 -15.979700
				CHANNELS 3 Xrotation Yrotation Zrotation
				JOINT LeftToeBase
				{
					OFFSET 5.346399 -15.068900 20.645000
					CHANNELS 3 Xrotation Yrotation Zrotation
					JOINT LeftToe_End
					{
						OFFSET 2.754700 0.931300 11.300900
						CHANNELS 3 Xrotation Yrotation Zrotation
						End Site
						{
							OFFSET 0.000000 11.669021 0.000000
						}
					}
				}
			}
		}
	}
	JOINT RightUpLeg
	{
		OFFSET -15.569500 -6.655098 0.678600
		CHANNELS 3 Xrotation Yrotation Zrotation
		JOINT RightLeg
		{
			OFFSET -4.081825 -39.591045 13.023800
			CHANNELS 3 Xrotation Yrotation Zrotation
			JOINT RightFoot
			{
				OFFSET 4.081824 -37.707954 -15.979600
				CHANNELS 3 Xrotation Yrotation Zrotation
				JOINT RightToeBase
				{
					OFFSET -5.346400 -15.068900 20.645000
					CHANNELS 3 Xrotation Yrotation Zrotation
					JOINT RightToe_End
					{
						OFFSET -2.754700 0.931300 11.300900
						CHANNELS 3 Xrotation Yrotation Zrotation
						End Site
						{
							OFFSET 0.000000 11.669021 0.000000
						}
					}
				}
			}
		}
	}
}
MOTION
Frames: 4
Frame Time: 0.033333
0.289058 78.876213 -0.157205 3.037465 -58.355080 6.232969 11.190421 0.276971 -2.458521 8.434588 0.027703 -5.592322 8.457058 0.027854 -5.591866 -21.555654 25.063377 12.062569 -0.294040 25.465751 -3.208977 0.000000 0.000000 -0.000001 -6.221674 -11.503863 -4.023826 -23.062178 9.568549 -36.639607 0.046103 -43.169114 -0.011164 22.743760 -5.685859 15.979292 -1.064236 -7.954897 8.490083 2.373393 19.986073 -2.038340 0.808197 1.237784 2.631748 -0.000000 -0.000000 -0.000001 13.340878 -1.006669 10.682261 -0.167590 0.303373 -31.105617 -0.143398 0.303646 -32.256272 -0.000000 -0.000000 -0.000001 8.495446 -0.329576 -0.915308 0.231516 0.661185 -29.901854 0.444098 0.213447 -44.357017 0.000001 -0.000001 -0.000000 6.111751 3.150906 -16.210964 0.047062 0.322394 -30.125475 0.408800 0.818959 -42.140665 0.000002 -0.000001 -0.000002 -5.636019 7.709845 -13.878621 0.224401 0.276610 -46.588369 0.261234 0.249366 -46.286840 -0.000002 0.000002 -0.000003 -5.488240 10.658259 2.466538 -41.473803 -26.755574 30.079074 24.955438 111.862974 -23.308471 -8.702497 12.423032 -9.801966 0.265000 10.061126 -10.888486 1.383817 -17.412883 3.016288 3.342335 -13.253726 -8.262748 -0.000003 0.000002 -0.000001 19.443593 11.174447 -13.340205 -0.118650 -0.322722 18.035599 -0.089912 -0.286603 23.256591 -0.000001 -0.000001 -0.000001 4.320481 2.436949 -4.811725 0.349121 -0.461246 26.890316 0.467477 0.154065 39.044838 0.000000 0.000000 0.000000 -7.005648 -10.695117 5.719837 0.111866 -0.089221 26.155894 0.451295 -0.473553 33.265053 0.000001 -0.000001 -0.000001 -19.433519 -20.238185 5.987880 0.223770 -0.085827 36.844561 0.260789 -0.047495 36.471697 -0.000001 -0.000002 0.000000 -34.682420 8.729305 27.684334 40.318310 -8.743027 -10.519667 -7.477122 -1.700985 -10.845888 -0.354880 1.238055 0.775505 -0.000000 -0.000001 -0.000000 -31.023436 -7.189573 -29.208375 46.890270 5.288285 -6.185772 -19.302068 0.930658 23.072109 -0.351793 -0.997036 -0.771245 -0.000000 0.000000 -0.000000 
0.419669 78.586433 0.133247 4.401459 -60.335548 8.630698 11.212613 0.613833 -2.135091 8.499293 0.746355 -5.025266 8.521762 0.746450 -5.024793 -23.943346 23.825537 13.152645 2.103728 24.585776 -4.669174 0.000000 -0.000000 -0.000001 -6.031341 -10.596720 -3.622101 -23.007473 10.643134 -35.981139 3.718950 -42.877100 0.196530 21.547302 -3.559496 15.054152 0.686265 -5.882906 6.076120 2.377779 19.991023 -2.037309 0.811784 1.237888 2.633832 -0.000001 0.000000 0.000000 13.385324 -0.776382 9.697488 -0.169326 0.303357 -31.466432 -0.141224 0.305276 -32.572021 0.000001 0.000000 0.000001 8.451083 0.563025 -0.954047 0.227758 0.655014 -29.651347 0.436433 0.210863 -44.021095 -0.000001 -0.000000 0.000000 6.104891 6.530888 -14.958604 0.055690 0.321462 -29.871979 0.401120 0.820328 -40.593389 -0.000001 -0.000000 -0.000001 -4.924576 9.093361 -8.596386 0.217517 0.276110 -46.197914 0.256176 0.249216 -45.855629 0.000000 0.000000 0.000001 -4.914957 11.354687 -1.765918 -40.930049 -19.276841 31.206260 25.152491 109.271115 -25.073539 -8.485494 12.447682 -9.761559 0.058422 10.442365 -11.544435 1.139168 -16.794119 3.257060 3.198936 -12.400329 -7.876312 -0.000003 -0.000002 0.000000 17.272879 11.658877 -13.052084 -0.114887 -0.314180 17.013429 -0.084784 -0.287672 22.216399 0.000001 0.000001 0.000001 3.682158 2.996510 -5.387542 0.341602 -0.462082 26.115044 0.468878 0.158295 38.153075 -0.000002 -0.000000 0.000001 -7.157132 -9.920109 5.428045 0.115617 -0.093730 25.578693 0.449657 -0.471806 32.615191 0.000002 0.000000 -0.000001 -19.270189 -20.221226 5.738965 0.218541 -0.090947 36.311922 0.253430 -0.047894 35.945448 0.000001 0.000000 0.000002 -33.915820 9.883874 27.620184 40.398431 -8.100687 -11.425922 -8.323568 -1.455430 -10.784487 -0.384511 1.237799 0.708409 0.000000 -0.000002 -0.000000 -34.258996 -6.233816 -30.860874 48.442464 4.766396 -5.827599 -17.564137 1.418336 22.611753 -1.103096 -0.987136 -0.664556 -0.000000 -0.000000 0.000000 
0.818678 78.028969 0.958983 8.054033 -64.785683 13.234883 11.205818 1.359701 -1.371496 8.523458 2.316557 -3.764309 8.545925 2.316645 -3.763827 -25.740307 22.629235 13.784068 4.005855 23.734305 -6.524122 -0.000000 -0.000000 0.000000 -5.678860 -8.690074 -2.747126 -22.871064 13.150643 -34.405152 12.259874 -41.965779 0.779588 18.981135 0.881158 12.973966 4.751947 -0.608516 0.842753 2.377804 19.991023 -2.037331 0.811733 1.237897 2.633837 -0.000002 0.000000 0.000003 13.511989 0.571589 7.619163 -0.171297 0.306906 -31.938555 -0.141857 0.307537 -32.955765 0.000001 0.000001 0.000001 8.404831 3.309315 -0.581032 0.219566 0.659115 -28.938077 0.424296 0.216417 -42.761765 -0.000001 -0.000000 0.000001 5.986917 13.564268 -10.953624 0.076934 0.318623 -29.150838 0.361176 0.822251 -37.201834 0.000000 -0.000000 0.000001 -4.457910 11.693589 2.615542 0.211492 0.274508 -45.087090 0.247943 0.248669 -44.628500 0.000000 0.000000 -0.000001 -4.236636 12.953308 -6.515738 -39.733420 -1.410188 30.446849 9.249607 102.323405 -13.311295 -17.099213 10.159606 -14.393213 -0.470158 11.234347 -13.010869 0.608377 -15.470209 3.780423 2.873701 -10.572789 -7.044201 0.000001 0.000004 -0.000002 12.752733 12.581495 -12.307297 -0.106090 -0.303698 14.903160 -0.076796 -0.280850 20.051231 0.000000 0.000001 0.000000 2.419596 4.177746 -6.367395 0.331889 -0.465748 24.538809 0.458734 0.150543 36.294194 -0.000002 -0.000000 -0.000000 -7.342986 -8.315424 5.099644 0.117249 -0.090777 24.495907 0.441565 -0.476254 31.351579 -0.000001 0.000000 0.000001 -18.737789 -20.239488 5.618193 0.218786 -0.088504 35.368325 0.252657 -0.046079 35.004586 0.000002 -0.000001 -0.000001 -32.341970 10.941568 27.989876 41.564980 -6.006737 -12.548051 -10.803517 -0.782108 -11.638622 -0.397215 1.237516 0.679617 0.000000 -0.000002 -0.000000 -39.755973 -4.619485 -32.131078 49.784959 5.790046 -5.322515 -14.955210 2.237043 21.516493 -0.993914 -0.987869 -0.786905 -0.000000 0.000000 -0.000000 
1.137616 77.561920 1.866420 13.961355 -69.269675 20.111586 11.084518 2.094775 -0.579313 8.307901 3.861823 -2.475057 8.330362 3.861917 -2.474583 -26.054947 21.271554 14.345067 5.709429 23.016805 -9.519926 0.000000 0.000001 -0.000000 -5.430867 -6.813801 -1.970999 -22.699128 15.764790 -32.461096 21.925894 -40.390395 1.601000 16.441879 4.789297 10.679536 9.319678 6.453220 -4.195864 2.383023 19.990896 -2.046459 0.816919 1.238263 2.625407 0.000001 -0.000000 0.000002 13.745032 4.032300 5.759048 -0.166550 0.304390 -31.611420 -0.136700 0.305190 -32.567288 0.000000 0.000000 0.000000 8.322842 8.020409 0.922514 0.211318 0.654073 -27.818162 0.398737 0.212449 -40.199529 0.000000 0.000003 -0.000000 5.537538 19.761308 -3.919955 0.093470 0.309469 -28.018590 0.319537 0.819284 -33.824657 -0.000000 -0.000001 0.000000 -4.432946 12.316947 13.149221 0.201963 0.272389 -43.342553 0.234012 0.248770 -42.701482 0.000000 -0.000000 -0.000000 -3.291630 14.649897 -10.998118 -37.199761 17.369926 28.947342 24.128615 94.027710 -32.882013 -23.848268 10.808207 -18.048903 -1.315686 12.236847 -15.042858 -0.110415 -13.717975 4.490694 2.404214 -8.151211 -5.929783 -0.000001 -0.000001 0.000002 6.956628 13.542479 -11.060551 -0.093031 -0.291430 12.259559 -0.064962 -0.272508 17.291577 -0.000000 0.000002 -0.000003 0.914220 5.683413 -7.175580 0.318006 -0.470674 22.609724 0.443253 0.140122 33.917907 0.000001 -0.000000 -0.000001 -7.359844 -6.291566 5.209926 0.117494 -0.089005 23.347166 0.430909 -0.482916 29.911734 0.000000 0.000001 0.000000 -17.699925 -20.306665 6.154517 0.218318 -0.086857 34.474000 0.250990 -0.044941 34.090096 0.000001 -0.000000 0.000001 -30.587616 12.078133 28.043963 42.369296 -4.227427 -13.583597 -13.310574 -0.032999 -12.653917 -0.407249 1.237478 0.657075 -0.000000 0.000004 -0.000000 -45.197097 -3.108730 -32.858124 50.415788 7.131950 -4.737888 -12.419248 2.996449 20.307061 -0.255631 -1.007929 -1.033307 -0.000000 -0.000000 0.000000 
